<svg xmlns="http://www.w3.org/2000/svg" xmlns:xlink="http://www.w3.org/1999/xlink" width="500" zoomAndPan="magnify" viewBox="0 0 375 374.999991" height="500" preserveAspectRatio="xMidYMid meet" version="1.0"><defs><g/><clipPath id="09b8b5f4e3"><path d="M 164.125 155.660156 L 193.355469 155.660156 L 193.355469 201.742188 L 164.125 201.742188 Z M 164.125 155.660156 " clip-rule="nonzero"/></clipPath></defs><g fill="#e2d6e6" fill-opacity="1"><g transform="translate(165.193638, 199.063547)"><g><path d="M 53.320312 -91.574219 C 53.320312 -105.152344 42.558594 -116.082031 28.980469 -116.082031 L 4.472656 -116.082031 L 4.472656 0 L 9.109375 0 L 9.109375 -111.445312 L 28.980469 -111.445312 C 39.90625 -111.445312 48.851562 -102.5 48.851562 -91.574219 L 48.851562 -24.507812 C 48.851562 -13.578125 39.90625 -4.472656 28.980469 -4.472656 L 16.558594 -4.472656 L 16.558594 -103.828125 L 28.980469 -103.828125 C 35.769531 -103.828125 41.234375 -98.363281 41.234375 -91.574219 L 41.234375 -24.507812 C 41.234375 -17.71875 35.769531 -12.089844 28.980469 -12.089844 L 24.175781 -12.089844 L 24.175781 -96.375 L 28.980469 -96.375 C 31.628906 -96.375 33.945312 -94.222656 33.945312 -91.574219 L 33.945312 -24.507812 C 33.945312 -21.691406 31.792969 -19.707031 29.144531 -19.707031 L 27.15625 -19.707031 L 27.15625 -15.070312 L 28.980469 -15.070312 C 34.113281 -15.070312 38.417969 -19.375 38.417969 -24.507812 L 38.417969 -91.574219 C 38.417969 -96.707031 34.113281 -101.011719 28.980469 -101.011719 L 19.539062 -101.011719 L 19.539062 -7.617188 L 28.980469 -7.617188 C 38.582031 -7.617188 46.035156 -15.234375 46.035156 -24.507812 L 46.035156 -91.574219 C 46.035156 -101.175781 38.582031 -108.628906 28.980469 -108.628906 L 12.089844 -108.628906 L 12.089844 0 L 28.980469 0 C 42.558594 0 53.320312 -10.929688 53.320312 -24.507812 Z M 53.320312 -91.574219 "/></g></g></g><g clip-path="url(#09b8b5f4e3)"><path fill="#4a355b" d="M 164.125 155.660156 L 193.355469 155.660156 L 193.355469 201.742188 L 164.125 201.742188 Z M 164.125 155.660156 " fill-opacity="1" fill-rule="nonzero"/></g><g fill="#e2d6e6" fill-opacity="1"><g transform="translate(135.961196, 277.105323)"><g><path d="M 46.035156 -82.960938 L 46.035156 -116.082031 L 33.945312 -116.082031 L 33.945312 -82.960938 C 33.945312 -80.3125 31.628906 -77.992188 28.980469 -77.992188 L 27.15625 -77.992188 L 27.15625 -73.523438 L 28.980469 -73.523438 C 34.113281 -73.523438 38.417969 -77.496094 38.417969 -82.960938 L 38.417969 -111.445312 L 41.234375 -111.445312 L 41.234375 -82.960938 C 41.234375 -76.171875 35.769531 -70.707031 28.980469 -70.707031 L 24.175781 -70.707031 L 24.175781 -116.082031 L 19.539062 -116.082031 L 19.539062 -65.90625 L 28.980469 -65.90625 C 38.582031 -65.90625 46.035156 -73.359375 46.035156 -82.960938 Z M 53.320312 -82.960938 L 53.320312 -116.082031 L 48.851562 -116.082031 L 48.851562 -82.960938 C 48.851562 -76.339844 46.695312 -72.859375 42.558594 -68.222656 C 46.367188 -64.25 48.851562 -59.28125 48.851562 -53.652344 L 48.851562 -4.472656 L 46.035156 -4.472656 L 46.035156 -53.652344 C 46.035156 -60.109375 43.550781 -62.757812 39.246094 -67.230469 L 36.097656 -64.085938 C 39.246094 -60.9375 41.234375 -58.121094 41.234375 -53.652344 L 41.234375 0 L 53.320312 0 L 53.320312 -53.652344 C 53.320312 -59.117188 51.832031 -64.085938 48.519531 -68.222656 C 51.832031 -72.53125 53.320312 -77.496094 53.320312 -82.960938 Z M 4.472656 0 L 24.175781 0 L 24.175781 -58.453125 L 28.980469 -58.453125 C 31.628906 -58.453125 33.617188 -56.300781 33.617188 -53.652344 L 33.617188 0 L 38.417969 0 L 38.417969 -53.652344 C 38.417969 -58.785156 34.113281 -63.089844 28.980469 -63.089844 L 19.539062 -63.089844 L 19.539062 -4.472656 L 9.109375 -4.472656 L 9.109375 -111.445312 L 12.089844 -111.445312 L 12.089844 -7.617188 L 16.558594 -7.617188 L 16.558594 -116.082031 L 4.472656 -116.082031 Z M 4.472656 0 "/></g></g></g><g fill="#e2d6e6" fill-opacity="1"><g transform="translate(194.176456, 217.44)"><g><path d="M 0.996094 0 L 6.03125 0 C 9.65625 0 11.417969 -2.558594 11.417969 -6 C 11.417969 -9.921875 9.109375 -11.867188 6.03125 -11.867188 L 0.996094 -11.867188 Z M 3.523438 -2.195312 L 3.523438 -9.671875 L 5.386719 -9.671875 C 7.960938 -9.671875 8.808594 -8.144531 8.808594 -5.75 C 8.808594 -3.125 7.363281 -2.195312 5.851562 -2.195312 Z M 3.523438 -2.195312 "/></g></g></g><g fill="#e2d6e6" fill-opacity="1"><g transform="translate(206.589484, 217.44)"><g><path d="M 0.996094 0 L 3.523438 0 L 3.523438 -11.867188 L 0.996094 -11.867188 Z M 0.996094 0 "/></g></g></g><g fill="#e2d6e6" fill-opacity="1"><g transform="translate(211.109362, 217.44)"><g><path d="M 7.128906 0.199219 C 10.820312 0.199219 13.195312 -2.507812 13.195312 -6.332031 L 7.128906 -6.347656 L 7.128906 -4.15625 L 10.269531 -4.15625 C 9.789062 -3.023438 8.460938 -2.359375 7.128906 -2.359375 C 5.136719 -2.359375 3.539062 -3.9375 3.539062 -5.949219 C 3.539062 -7.945312 5.136719 -9.539062 7.128906 -9.539062 C 8.460938 -9.539062 9.589844 -8.859375 10.203125 -7.792969 C 11.367188 -8.375 11.453125 -8.425781 12.5 -8.957031 C 11.433594 -10.804688 9.421875 -12.082031 7.128906 -12.082031 C 3.757812 -12.082031 0.996094 -9.324219 0.996094 -5.949219 C 0.996094 -2.558594 3.757812 0.199219 7.128906 0.199219 Z M 7.128906 0.199219 "/></g></g></g><g fill="#e2d6e6" fill-opacity="1"><g transform="translate(225.300435, 217.44)"><g><path d="M 0.996094 0 L 3.523438 0 L 3.523438 -11.867188 L 0.996094 -11.867188 Z M 0.996094 0 "/></g></g></g><g fill="#e2d6e6" fill-opacity="1"><g transform="translate(229.820313, 217.44)"><g><path d="M 4.40625 0 L 6.929688 0 L 6.929688 -9.539062 L 10.320312 -9.539062 L 10.320312 -11.867188 L 0.996094 -11.867188 L 0.996094 -9.539062 L 4.40625 -9.539062 Z M 4.40625 0 "/></g></g></g><g fill="#e2d6e6" fill-opacity="1"><g transform="translate(241.136608, 217.44)"><g><path d="M 0.996094 0 L 3.691406 0 L 4.71875 -2.625 L 9.605469 -2.625 L 10.636719 0 L 13.328125 0 L 8.34375 -11.867188 L 5.984375 -11.867188 Z M 5.667969 -5.050781 L 7.164062 -8.859375 L 8.660156 -5.050781 Z M 5.667969 -5.050781 "/></g></g></g><g fill="#e2d6e6" fill-opacity="1"><g transform="translate(255.460616, 217.44)"><g><path d="M 0.996094 0 L 9.988281 0 L 9.988281 -2.328125 L 3.523438 -2.328125 L 3.523438 -11.867188 L 0.996094 -11.867188 Z M 0.996094 0 "/></g></g></g><g fill="#e2d6e6" fill-opacity="1"><g transform="translate(194.176456, 233.939999)"><g><path d="M 0.996094 0 L 3.488281 0 L 3.488281 -2.625 L 4.953125 -4.335938 L 8.476562 0 L 11.550781 0 L 6.546875 -6.382812 L 11.203125 -11.867188 L 8.128906 -11.867188 L 3.488281 -6.148438 L 3.488281 -11.867188 L 0.996094 -11.867188 Z M 0.996094 0 "/></g></g></g><g fill="#e2d6e6" fill-opacity="1"><g transform="translate(206.72243, 233.939999)"><g><path d="M 0.996094 0 L 9.65625 0 L 9.65625 -2.328125 L 3.523438 -2.328125 L 3.523438 -4.785156 L 8.941406 -4.785156 L 8.941406 -7.113281 L 3.523438 -7.113281 L 3.523438 -9.539062 L 9.65625 -9.539062 L 9.65625 -11.867188 L 0.996094 -11.867188 Z M 0.996094 0 "/></g></g></g><g fill="#e2d6e6" fill-opacity="1"><g transform="translate(217.37404, 233.939999)"><g><path d="M 7.148438 0.199219 C 9.539062 0.199219 11.550781 -1.128906 12.582031 -3.074219 C 11.5 -3.574219 11.46875 -3.640625 10.304688 -4.238281 C 9.691406 -3.074219 8.507812 -2.34375 7.148438 -2.34375 C 5.152344 -2.34375 3.539062 -3.957031 3.539062 -5.949219 C 3.539062 -7.929688 5.152344 -9.554688 7.148438 -9.554688 C 8.460938 -9.554688 9.605469 -8.84375 10.203125 -7.792969 C 11.367188 -8.359375 11.453125 -8.410156 12.480469 -8.957031 C 11.453125 -10.804688 9.472656 -12.097656 7.148438 -12.097656 C 3.757812 -12.097656 0.996094 -9.308594 0.996094 -5.949219 C 0.996094 -2.558594 3.757812 0.199219 7.148438 0.199219 Z M 7.148438 0.199219 "/></g></g></g><g fill="#e2d6e6" fill-opacity="1"><g transform="translate(230.95028, 233.939999)"><g><path d="M 0.996094 0 L 3.523438 0 L 3.523438 -4.785156 L 8.941406 -4.785156 L 8.941406 0 L 11.46875 0 L 11.46875 -11.867188 L 8.941406 -11.867188 L 8.941406 -7.113281 L 3.523438 -7.113281 L 3.523438 -11.867188 L 0.996094 -11.867188 Z M 0.996094 0 "/></g></g></g></svg>